<svg width="1390" height="6104" viewBox="0 0 1390 6104" fill="none" xmlns="http://www.w3.org/2000/svg">
<path d="M491 2.42705L497.022 20.9613L497.191 21.4795H497.735H517.223L501.457 32.9343L501.016 33.2545L501.185 33.7728L507.207 52.307L491.441 40.8522L491 40.5319L490.559 40.8522L474.793 52.307L480.815 33.7728L480.984 33.2545L480.543 32.9343L464.777 21.4795H484.265H484.809L484.978 20.9613L491 2.42705Z" stroke="#10BBC8" stroke-width="1.5"/>
<path d="M114 2075.5C-111 1944.5 -31.5003 3234.5 661.5 2929" stroke="#3551BE" stroke-width="3" stroke-dasharray="8 8"/>
<path d="M111.5 416.5C-35.0003 274.5 -198 1449.5 811.5 1140" stroke="#3551BE" stroke-width="3" stroke-dasharray="8 8"/>
<path d="M1272 1142C1377 1015 1656 2139.5 649.5 2083.5" stroke="#3551BE" stroke-width="3" stroke-dasharray="8 8"/>
<path d="M393 424C551.5 518.5 542 195.5 491 42" stroke="#3551BE" stroke-width="3" stroke-dasharray="8 8"/>
<path d="M1268 5079.5C1470.5 4863 1426 6382 649.5 6055.5" stroke="#3551BE" stroke-width="3" stroke-dasharray="8 8"/>
<path d="M1269 2931.5C1424.5 2741 1505 4345.5 785.5 4097.5" stroke="#3551BE" stroke-width="3" stroke-dasharray="8 8"/>
<path d="M113 4090C-43.9999 3963 -108.5 5366 717.5 5079" stroke="#3551BE" stroke-width="3" stroke-dasharray="8 8"/>
</svg>
